<svg width="32" height="32" viewBox="0 0 32 32" fill="none" xmlns="http://www.w3.org/2000/svg">
  <!-- Background circle -->
  <rect width="32" height="32" rx="6" fill="#1a1a1a"/>

  <!-- Envelope body -->
  <path d="M6 11C6 10.4477 6.44772 10 7 10H25C25.5523 10 26 10.4477 26 11V21C26 21.5523 25.5523 22 25 22H7C6.44772 22 6 21.5523 6 21V11Z" fill="#2d3748"/>

  <!-- Envelope flap -->
  <path d="M6 11L16 17L26 11" stroke="#00f5a0" stroke-width="1.5" stroke-linecap="round" stroke-linejoin="round"/>

  <!-- AI Sparkle top right -->
  <circle cx="23" cy="8" r="1.5" fill="#00f5a0"/>
  <line x1="23" y1="6" x2="23" y2="7" stroke="#00f5a0" stroke-width="1" stroke-linecap="round"/>
  <line x1="23" y1="9" x2="23" y2="10" stroke="#00f5a0" stroke-width="1" stroke-linecap="round"/>
  <line x1="21" y1="8" x2="22" y2="8" stroke="#00f5a0" stroke-width="1" stroke-linecap="round"/>
  <line x1="24" y1="8" x2="25" y2="8" stroke="#00f5a0" stroke-width="1" stroke-linecap="round"/>

  <!-- Envelope outline -->
  <rect x="6" y="10" width="20" height="12" rx="1" stroke="#00f5a0" stroke-width="1.5" fill="none"/>
</svg>
